<svg xmlns="http://www.w3.org/2000/svg" width="100" height="100">
  <path d="M29.31084 45.43864c8.43213 9.66903 7.5437 14.93397 6.204 23.65672 8.8781 4.48252 21.90462 4.92479 30.50588-1.4981-5.35495-10.6681-4.04177-13.96062 2.98125-21.50306-23.54406-30.37331-20.67321-25.39185-39.69113-.65556Z" style="fill:#fff;stroke:none;"/>
  <path d="m41.80392 61.80391-1.4902-2.43137c2.98039-1.64706 6.19608-2.74509 9.64706-2.74509 3.52941 0 6.82353 1.09803 9.72549 2.74509l-1.4902 2.43137c-2.50981-1.56863-5.33333-2.43137-8.23529-2.43137-2.82353 0-5.7255.86274-8.15686 2.43137zM38.19607 68c2.90196-3.13726 7.37255-4.70588 11.76471-4.70588 4.47058 0 8.94117 1.56862 11.84313 4.70588l-1.4902 2.11764c-2.58823-2.58823-6.58823-4-10.43136-4-3.76471 0-7.60784 1.41177-10.19608 4zm8-44.70589C38.5098 28.78431 28 34.43137 28 45.17647c0 4.39215 2.43137 9.33333 5.96078 11.92156.54901.39216.70588.39216.86274.78432-1.41176 6.11764-2.11764 9.41176-2.11764 9.49019 0 3.29412 8.07843 4.94118 11.29412 5.4902-1.41178 1.01961-4.39217 1.64706-7.76472 1.64706-1.96077 0-5.33332-.23529-9.2549-.23529-3.60784 0-7.37254 2.0392-10.50979 3.99999-1.2549.94118-3.76471 2.58824-3.76471 3.84314 0 2.66667 5.2549 6.90196 6.58823 6.90196 2.90196-1.2549 5.33334-3.29411 8.39216-4.23529 4.62745-1.2549 9.41176-.4706 14.11765-1.2549 2.11765-.31373 6.82353-1.4902 8.15686-2.66667 3.99999 2.35294 6.11764 2.35294 8.23529 2.66667 4.78432.70587 9.4902 0 14.11765 1.2549 3.05882.94118 5.49019 2.98039 8.39216 4.23529 1.2549 0 6.58823-4.23529 6.58823-6.90196 0-1.2549-2.50981-2.90196-3.76471-3.84314-3.05882-2.03922-6.90196-3.99999-10.50981-3.99999-3.92156 0-7.29411.23529-9.25489.23529-3.37255 0-6.35295-.70588-7.76471-1.72549 3.21569-.54902 11.29412-2.11765 11.29412-5.41177 0-.0784-.70589-3.37255-2.11765-9.49019.15686-.39216.31373-.39216.78432-.78432 3.60784-2.58823 6.03921-7.52941 6.03921-11.92156 0-10.7451-10.5098-16.39216-18.19608-21.88236 1.72549-1.2549 2.90197-3.21569 2.90197-5.72549 0-3.45098-3.21569-6.58823-6.7451-6.58823-3.45098 0-6.66667 3.13725-6.66667 6.58823 0 2.5098 1.17647 4.47059 2.90196 5.72549zm5.41177 29.33333c0 1.09805-.31373 2.19609-1.64706 2.19609-1.2549 0-1.64706-1.09804-1.64706-2.19609v-9.49019h-8.31373c-1.09803 0-2.19608-.47059-2.19608-1.72549 0-1.33333 1.09805-1.72549 2.19608-1.72549h8.31373v-8.31373c0-1.09804.39216-2.19607 1.64706-2.19607 1.33333 0 1.72549 1.09803 1.72549 2.19607v8.31373H60c1.09803 0 2.19607.39219 2.19607 1.72549 0 1.2549-1.09804 1.72549-2.19607 1.72549h-8.39216z" style="fill:#000;stroke:none;"/>
</svg>