<svg xmlns="http://www.w3.org/2000/svg" width="100" height="100">
	<path d="M49.09802 12.31372h-4.70588c-1.09803 0-1.41176.47059-1.41176 1.01961 0 .39218.31373.86274 1.41176.86274h4.70588v7.37256c-4.39215 1.0196-6.11764 6.03921-6.11764 10.35293 0 1.88236.70589 5.96078 1.33333 8-1.09804-1.0196-12.78431-10.74509-19.21568-10.74509-7.13725 0-12.47059 4.54902-12.47059 12.31372 0 7.68627 8.15686 13.01961 10.98039 20.2353.70589 6.98038.70589 7.68627.70589 8.39215l-.39216 11.92157c6.19607 3.29412 13.96078 6.35294 25.96078 6.35294s20-3.05882 26.19608-6.35294l-.47059-11.92157c0-.70588 0-1.41177.70588-8.39215 2.82353-7.21569 11.05883-12.54903 11.05883-20.2353 0-7.7647-6.19609-12.15686-12.4706-12.15686-6.90195 0-14.66666 6.19608-19.37254 10.58823.54902-2.03922 1.49019-6.03921 1.49019-7.92156 0-4.31373-1.72548-9.41177-6.11764-10.43137v-7.37256h4.70588c1.09804 0 1.41176-.47059 1.41176-.86274 0-.54902-.31372-1.01961-1.41176-1.01961h-4.70588v-2.2745c0-1.17648-.39218-1.41177-.94118-1.41177-.47059 0-.86275.23527-.86275 1.41177z" style="fill:#fff;stroke:none;"/>
	<path d="M48.47058 11.68627h-5.33334c-1.2549 0-1.56862 1.01961-1.56862 1.4902 0 .54901.31372 1.49019 1.56862 1.49019h5.33334v5.56863c-4.54902.94118-6.90196 6.27451-6.90196 10.7451 0 2.03921.23529 4.31372.86275 6.43137-1.09805-1.09804-11.92158-9.17647-18.66668-9.17647-7.45097 0-13.17647 4.62746-13.17647 12.86274 0 8.2353 8.70589 13.7255 11.60785 21.33334.70588 7.37254.78431 8.07843.78431 8.86275l-.47059 11.92156c6.58824 3.45098 18.35295 6.82353 27.37255 6.82353 9.01961 0 21.01961-3.37255 27.60785-6.82353l-.4706-11.92156c0-.78432 0-1.49021.70589-8.86275 2.90196-7.60784 11.68627-13.09804 11.68627-21.33334 0-8.23528-6.58824-12.78431-13.17647-12.78431-7.21568 0-13.96078 4.39216-18.82353 9.09804.54902-2.11765 1.01961-4.31373 1.01961-6.27451 0-4.54902-2.35294-9.96078-6.90196-10.90196v-5.56863h5.33334c1.2549 0 1.56862-.94118 1.56862-1.49019 0-.47059-.31372-1.4902-1.56862-1.4902H51.5294V8c0-1.17647-1.0196-1.4902-1.56863-1.4902-.47059 0-1.49019.31373-1.49019 1.4902zm1.49019 34.58823c-1.64706-4.86274-4.07843-9.80392-4.07843-14.90196 0-2.90196 1.25491-6.27451 4.07843-6.27451 2.90196 0 4 3.37255 4 6.27451 0 5.09804-2.35294 10.03922-4 14.90196zM29.17646 73.72548c0-.86274 0-1.33333 1.4902-2.03921 5.2549-2.35294 12.15685-4.07843 19.29411-4.07843 7.21568 0 14.11765 1.72549 19.37255 4.07843 1.4902.70588 1.4902 1.17647 1.4902 2.03921 0 .78432-1.2549.94118-1.4902.94118-1.01961 0-7.84313-4.23529-19.37255-4.23529-11.45098 0-18.27451 4.23529-19.29411 4.23529-.2353 0-1.4902-.15686-1.4902-.94118zm20.78431-22.19607c-2.66666-6.50981-6.03921-12.94118-6.03921-20.15687 0-4.07843 1.96078-8.86274 6.03921-8.86274 4.15686 0 6.11765 4.78431 6.11765 8.86274 0 7.21569-3.37255 13.64706-6.11765 20.15687zm-5.33333 2.5098c0-5.33333-10.7451-19.13726-20.39216-19.13726-3.52941 0-6.7451 2.90196-6.7451 7.21569 0 4.47059 7.13726 9.96079 8.39216 14.11765 5.49019-1.41176 13.09804-2.19608 18.7451-2.19608zm3.37255 2.66667c-7.52941 0-16.2353 1.09804-23.60784 3.05882-1.80392-5.88236-10.27451-11.76471-10.27451-18.66667 0-5.88235 4.86274-9.49019 9.64705-9.49019 11.45098 0 24.2353 13.72549 24.2353 25.09804zm7.37254-2.66667c5.64707 0 13.25491.78432 18.74511 2.19608 1.2549-4.15686 8.39215-9.64706 8.39215-14.11765 0-4.31373-3.21568-7.21569-6.7451-7.21569-9.64705 0-20.39216 13.80393-20.39216 19.13726zm-3.37254 2.66667c0-11.37255 12.78431-25.09804 24.23529-25.09804 4.78431 0 9.64705 3.60784 9.64705 9.49019 0 6.90196-8.47058 12.78431-10.2745 18.66667-7.37255-1.96078-16.07843-3.05882-23.60784-3.05882Zm-23.76471 24c0-.78432 0-1.33333 1.49019-2.03922 5.17648-2.35295 13.09804-5.09804 20.2353-5.09804 7.21568 0 15.13725 2.74509 20.31372 5.09804 1.4902.70589 1.4902 1.2549 1.4902 2.03922 0 .78431-1.17647 1.0196-1.4902 1.0196-.94117 0-8.7843-5.33333-20.31372-5.33333-11.45098 0-19.29411 5.33333-20.2353 5.33333-.31371 0-1.49019-.23529-1.49019-1.0196zm.15686-16.47059c0-.86275 0-1.33333 1.4902-2.03922 5.2549-2.43137 12.94117-3.60785 20.07843-3.60785 7.21568 0 14.90197 1.17648 20.15686 3.60785 1.4902.70589 1.4902 1.17647 1.4902 2.03922 0 .78431-1.17647.94117-1.4902.94117-1.0196 0-8.62744-3.7647-20.15686-3.7647-11.45098 0-19.05882 3.7647-20.07843 3.7647-.31372 0-1.4902-.15686-1.4902-.94117z" style="fill:#000;stroke:none;"/>
</svg>