<svg xmlns="http://www.w3.org/2000/svg" width="100" height="100">
  <path d="M22.43993 66.34436c.15686 2.03922.81565 2.1376 2.14898 2.1376 3.37255 0 4.82284-7.38393 8.27382-10.44275 3.60784-3.21568 13.2549-7.45098 17.33333-10.43138.54761 6.50981-.54045 13.03958-2.42279 16.49056-1.80393 3.13725-4.47917 6.44992-6.59682 8.80287-2.19607 2.35293-5.01103 2.72654-5.01103 13.23634l49.56006.1369c0-9.09803-3.55795-31.55935-8.26384-42.4613-3.37254-8-6.89339-11.913-10.81495-14.6581-6.03922-4.07842-11.66631-6.01784-17.15651-6.88059-1.72549-3.05883-3.04884-7.0802-3.99001-8.25666-1.88236 1.33333-5.28485 6.22602-6.22603 6.22602-1.72549 0-6.73652-4.92122-9.79534-5.47024l.93119 9.50018c-.54901 3.7647-7.17576 4.6488-7.17576 10.139 0 3.7647-.0014 5.73407-.39358 6.67524-2.58823 6.11765-9.74262 10.99038-9.74262 18.12763 0 1.88235 1.18503 4.1868 2.59681 5.59857 1.56862 1.88234 4.31372 1.37325 6.7451 1.5301z" style="fill:#fff;stroke:none"/>
  <path d="M39.76469 18.66666c-.15687.23528-.39216.54902-.62745.54902-.31372 0-1.01961-.39218-1.01961-.39218l-9.80392-5.80392c0 3.45098.70588 7.68628.70588 10.66667-1.33333 3.21568-4.78431 5.09804-6.43137 7.68627-.39216.70588-.47059 1.41176-.47059 2.19608 0 1.2549.0784 2.19607.0784 3.05882 0 1.56863-.62744 3.60784-1.09803 4.78432-2.50981 6.19607-8.86275 11.05882-8.86275 18.19607 0 4.39218 3.45098 7.76473 7.84313 7.76473.39216 0 .78432 0 1.25491-.0784-.15686.2353-.15686.94117-.15686 1.09804 0 .62745.78431 1.72549 1.96078 1.72549.94118 0 2.03921-.31373 2.82353-1.01961 3.45098-2.82352 4-7.68627 7.45098-10.58824 4.70588-4.07842 11.05882-5.33332 15.7647-9.49019.2353 1.80392.31373 3.29412.31373 5.01961 0 3.45098-1.56863 8.39216-3.76471 11.84314-3.84313 5.80392-10.82353 9.49019-10.82353 17.33333 0 1.17647.0784 2.5098.31373 3.68628h51.29411c0-12.62745-2.19608-25.41177-6.19607-37.41177-2.19608-6.58824-5.01961-13.2549-9.88236-18.35295-3.45098-3.60783-7.84313-6.35294-12.62745-7.84313 0 0-4.39215-1.17647-6.82353-1.17647-.31372 0-.70587 0-.86274-.23526-.31372-.15687-.39216-.54903-.62745-.86275-1.80392-4.00003-2.66667-6.35297-3.92156-8.54905zm7.92157 6.90196c0-.70587.62745-1.2549 1.33333-1.2549 6.35294 0 13.88236 3.37255 18.58824 7.76471 4.78431 4.54901 7.29411 9.72549 9.49019 15.92156 2.58823 7.13726 4.31372 14.58824 5.33334 22.03922.47058 3.45098.86274 9.56862.86274 13.09804 0 .62745-.62746 1.33333-1.33333 1.33333-.62746 0-1.33333-.70588-1.33333-1.33333-.23528-2.66667-.62746-9.64706-1.09805-13.09804-1.0196-7.45098-2.19607-13.17647-5.09803-21.2549-2.11765-5.96079-4.4706-10.58824-8.54902-14.58823-4.39216-4.31373-11.37255-7.05883-17.01961-7.21569-.47059 0-1.17647-.54902-1.17647-1.41177zM25.72548 39.37254c1.64705-2.5098 2.98039-6.58823 5.96078-7.29411.70588 0 1.17647.23526 1.80392.39218-1.41176 3.29411-4.31372 5.96079-7.7647 6.90196zm-10.5098 22.66667c-.0784-.62745-.0784-1.33333-.0784-1.80393 0-2.11764 1.2549-4.31372 2.7451-4.31372 1.0196 0 1.80392.94118 1.80392 1.88236 0 2.11765-4 3.60784-4.47058 4.23529z" style="fill:#000;stroke:none"/>
</svg>