<svg xmlns="http://www.w3.org/2000/svg" width="100" height="100">
	<path d="M42.11764 29.17647c-5.7255 1.64706-9.41177 7.5294-9.41177 13.09804 0 4.15685 1.88235 8.54902 5.41176 11.05882-10.11764 4.47058-16.54901 14.98039-16.54901 25.96078 0 1.4902.15685 2.90196.39215 4.39216.47059 1.41176.54902 2.82352 1.56863 2.82352h52.94117c1.01961 0 1.09805-1.41176 1.49019-2.82352.4706-1.4902.4706-2.98039.4706-4.47059 0-10.90196-6.50981-21.4902-16.54903-25.88235 3.52942-2.5098 5.41177-6.90197 5.41177-11.05882 0-5.56864-3.68628-11.45098-9.41176-13.09804 1.49019-1.64706 2.43137-3.84313 2.43137-6.19608 0-5.64705-4.94118-9.41176-10.35294-9.41176-5.56863 0-10.27451 3.92156-10.27451 9.64706 0 2.2745 1.01961 4.31372 2.43138 5.96078z" style="fill:#000;stroke:none;"/>
</svg>