<svg xmlns="http://www.w3.org/2000/svg" width="100" height="100">
	<path d="M22.54202 60.72378c.55336 2.29208-.48766 3.41033 1.74704 4.41099 1.54992 1.03427 2.14803 2.9471 2.71757 4.63103.96805 2.92753.95767 6.16646-.15472 9.05242-.49029 1.34898-1.19175 2.62251-2.08043 3.75014 3.0678 1.33957 6.4524 1.68065 9.74445 2.07986 7.12168.73162 14.39948.82114 21.48602.64084 5.4458-.20964 10.9437-.44011 16.26694-1.6965 1.02807-.27017 2.06082-.5745 2.99674-1.08865-2.7198-3.29852-3.69076-7.94659-2.45003-12.04726.55492-1.8361 1.12696-3.861 2.63688-5.1502-19.80042-8.9451-30.4055-8.32544-52.91046-4.58267z" style="fill:#fff;stroke:none;"/>
	<path d="M23.99999 16.86274c0 3.45099 2.66666 6.27451 5.96078 6.43138l-1.64706 31.84313h-.0784L15.76473 29.56863c2.11765-1.09804 3.60784-3.29412 3.60784-5.80392 0-3.45098-2.90196-6.35295-6.35294-6.35295-3.52941 0-6.43137 2.90197-6.43137 6.35295 0 3.5294 2.90196 6.43137 6.43137 6.43137h.78431l3.76471 29.56862c.86275 3.13725 2.82353 5.64706 5.64706 7.05883 1.01961.47058 2.5098 4.54902 2.5098 7.21568 0 2.58824-.94117 5.33333-2.58823 7.37255-.31373.47058-.86275.86274-.86275 1.41177 0 .15686.15686.47058.31373.70587 3.84314 3.45098 21.01961 3.84314 27.29411 3.84314 5.64706 0 24-.15686 27.52942-4 .15686-.15686.31372-.39215.31372-.54901 0-.54903-.39219-.94119-.70588-1.33334-1.80393-2.11765-2.7451-4.70589-2.7451-7.45098 0-2.5098 1.4902-6.7451 2.5098-7.21568 2.82353-1.41177 5.17647-3.92158 5.64706-7.05883l3.68627-29.56862h.78432c3.52941 0 6.43137-2.90197 6.43137-6.43137 0-3.45098-2.90196-6.35295-6.43137-6.35295-3.52941 0-6.43137 2.90197-6.43137 6.35295 0 2.66666 1.49019 4.86274 3.60784 5.80392L71.76472 55.13725h-.0784l-1.72549-31.84313c3.37255-.15687 6.03921-2.98039 6.03921-6.43138 0-3.45098-2.90196-6.35294-6.43137-6.35294-3.45098 0-6.35294 2.90196-6.35294 6.35294 0 2.7451 1.64706 5.17648 4.07844 6.03922L57.01965 53.33333h-.15686l-5.4902-33.72549c2.82354-.62745 5.01961-3.21569 5.01961-6.19608 0-3.52941-2.90196-6.43137-6.43137-6.43137-3.45099 0-6.35294 2.90196-6.35294 6.43137 0 3.05883 2.27451 5.80392 5.17647 6.27451l-5.8039 33.64706-10.35293-30.43137c2.35293-.86274 4.15685-3.29412 4.15685-6.03922 0-3.45098-2.90195-6.35294-6.35294-6.35294-3.52941 0-6.43137 2.90196-6.43137 6.35294zm4.31372 65.64706c-.54901 0-1.41176-.39216-1.41176-1.17647 0-.86275.31373-1.25491 1.41176-1.72549 1.80393-.78432 8.31373-2.90196 21.64707-2.90196 13.41175 0 19.92156 2.11764 21.72548 2.90196 1.09805.47058 1.41176.86274 1.41176 1.72549 0 .78431-.86274 1.17647-1.41176 1.17647-1.41176 0-4.70588-2.98039-21.72548-2.98039-16.94119 0-20.2353 2.98039-21.64707 2.98039zm-.70587-15.68627c0-.78432.62744-1.33333 1.17646-1.64706 3.13726-1.41176 11.45099-3.84314 21.17648-3.84314 9.80392 0 18.11765 2.43138 21.2549 3.84314.54901.31373 1.17647.86274 1.17647 1.64706 0 .78431-.86275 1.09803-1.17647 1.09803-2.11765 0-8.2353-3.84314-21.2549-3.84314-12.94118 0-19.05883 3.84314-21.17648 3.84314-.31372 0-1.17646-.31372-1.17646-1.09803zm3.60784 8.94117c-.54902 0-1.33334-.2353-1.33334-1.09804 0-.78432.62746-1.17646 1.33334-1.56862 3.29411-1.80393 10.98039-3.92158 18.58823-3.92158 7.60784 0 15.68627 2.11765 18.98039 3.92158.70589.39216 1.33333.7843 1.33333 1.56862 0 .86274-.78431 1.09804-1.33333 1.09804-1.64706 0-8-3.76471-18.82352-3.76471-10.7451 0-17.09804 3.76471-18.7451 3.76471z" style="fill:#000;stroke:none;"/>
</svg>