<svg xmlns="http://www.w3.org/2000/svg" width="100" height="100">
	<path d="M67.7647 63.13725V36l9.41177-8.39216V14.66666h-7.522v5.09804H55.7647v-5.09804H44.23529v5.09804H30.34553v-5.09804h-7.522v12.94118L32 36.07843v27.05882l-8 8.39215v8.70589h-5.01961v7.29411h61.88235v-7.29411h-4.94117v-8.94118z" style="fill:#fff;stroke:none"/>
	<path d="M22.11764 78.2745h-4.70588v10.19608h65.17646V78.2745h-4.78431v-7.13725c-2.03921-2.03922-5.09803-5.64706-8.07843-8.62745V36.62744c4-3.52941 9.4902-6.82353 9.4902-7.84313V13.17647H67.92157v5.72548H57.41176v-5.72548h-14.7451v5.72548H32.23529v-5.72548H20.70588v15.68627c3.68628 2.82353 5.4902 3.92157 9.49019 7.45098V62.5098c-2.98039 2.98039-6.11764 6.5098-8.07843 8.47059zm49.2549 1.01961c1.72549 0 3.45098 0 3.45098 1.72548 0 1.64706-1.72549 1.64706-3.45098 1.64706H28.47058c-1.64706 0-3.37255 0-3.37255-1.64706 0-1.72548 1.72549-1.72548 3.37255-1.72548zm-1.96078-8.31372c1.72549 0 3.37255 0 3.37255 1.72549s-1.64706 1.72549-3.37255 1.72549H30.5098c-1.72549 0-3.37255 0-3.37255-1.72549s1.64706-1.72549 3.37255-1.72549zm-8-8.47059c1.72549 0 3.37255 0 3.37255 1.72549 0 1.64706-1.64706 1.64706-3.37255 1.64706H38.5098c-1.72549 0-3.37255 0-3.37255-1.64706 0-1.72549 1.64706-1.72549 3.37255-1.72549zm0-29.33334c1.72549 0 3.37255 0 3.37255 1.72549s-1.64706 1.72549-3.37255 1.72549H38.5098c-1.72549 0-3.37255 0-3.37255-1.72549s1.64706-1.72549 3.37255-1.72549zm8-7.7647c1.72549 0 3.37255 0 3.37255 1.72549 0 1.64706-1.64706 1.64706-3.37255 1.64706H30.5098c-1.72549 0-3.37255 0-3.37255-1.64706 0-1.72549 1.64706-1.72549 3.37255-1.72549z" style="fill:#000;stroke:none"/>
</svg>