<svg xmlns="http://www.w3.org/2000/svg" width="100" height="100">
	<path d="M49.73438 12.98828c-2.75006.19143-5.09884 3.1106-4.29167 5.84587.32314 1.66192 1.70599 2.7456 3.00428 3.67122.23475.36446 1.5564.75378.7939 1.09544-4.42485 3.22287-9.17718 6.03233-13.23736 9.72909-3.04833 2.76776-5.62982 6.41304-5.94899 10.63306-.3643 4.1635 1.48579 8.42993 4.62541 11.15382.8128.60867 1.77593 1.1539 2.08493 2.19835.3383.65128-.18735 1.3933-.23686 2.08527-.59172 2.68432-1.27957 5.38282-1.7702 8.06835 1.09765 1.22911 2.78808 1.68215 4.29659 2.2048.96815.30237 1.96054.54758 2.84572.7419 2.4467.51087 4.91422.91715 7.3694 1.38533-1.81478 1.11961-3.50938 2.45003-5.41016 3.41992-4.07445 1.70314-8.58794 1.26117-12.88916 1.12779-1.55459-.03717-3.11534-.11997-4.72787-.0343-3.26668.36698-6.18807 2.07572-8.9099 3.80871-.88515.68914-1.91961 1.30348-2.58244 2.19936.81669 1.80852 2.40334 3.1573 3.99451 4.2826.39855.51422.8505.0136 1.2689-.16916 2.8768-1.59408 5.6915-3.5482 9.03151-3.99625 3.44783-.5975 6.90976-.37293 10.34603-.63687 2.98903-.27058 5.97627-.93048 8.73112-2.13554.61813-.3071 1.11557-.8016 1.67676-1.19634 2.29227 1.3747 4.733 2.67077 7.44323 2.9113 2.88031.48594 5.7753.50868 8.65207.59108 3.51123.09911 7.15073.48707 10.24542 2.28646 1.5786.82677 3.06706 1.8188 4.66904 2.60179 1.7516-1.11837 3.42816-2.54502 4.39258-4.41602.06301-.47757-.6472-.77379-.94152-1.11373-2.83819-2.24272-6.06058-4.20291-9.65144-4.90939-1.45227-.25898-3.07366-.10386-4.4484-.11036-4.29.08622-8.7154.65417-12.87485-.72277-2.17222-.6729-3.8889-2.24313-5.8073-3.39905-.92466-.42778-.60015-.59925.25423-.662 4.12201-.8308 8.43383-1.20801 12.25444-3.09051.43866-.2976 1.14328-.56512 1.25786-1.1098-.68456-3.23028-1.43575-6.44623-2.16997-9.6656.3135-.92102.91477-1.69574 1.74317-2.20764 3.2693-2.4839 5.24626-6.61119 5.1748-10.71227-.0638-3.95983-2.14807-7.59056-4.88901-10.33503-4.08999-4.1284-9.17029-7.0498-13.83865-10.4518-.64437-.3445-1.08666-.69363-.19965-1.07315 1.37833-1.06814 3.05865-2.0877 3.46074-3.92468.6541-2.033-.44508-4.27623-2.2517-5.29855-.75375-.46926-1.6502-.71976-2.53955-.6707z" style="fill:#fff;stroke:none"/>
	<path d="M46.19606 23.29411c-7.68627 5.49019-18.19607 11.13726-18.19607 21.88235 0 4.39215 2.43137 9.33333 5.96078 11.92157.54901.39216.70588.39216.86274.78431-1.41176 6.11765-2.11764 9.41176-2.11764 9.4902 0 3.29411 8.07843 4.94117 11.29412 5.4902-1.41178 1.0196-4.39217 1.64706-7.76472 1.64706-1.96077 0-5.33332-.2353-9.25489-.2353-3.60785 0-7.37255 2.03922-10.5098 4-1.2549.94118-3.76471 2.58824-3.76471 3.84314 0 2.66666 5.2549 6.90196 6.58823 6.90196 2.90196-1.2549 5.33334-3.29412 8.39216-4.2353 4.62745-1.2549 9.41176-.47058 14.11765-1.2549 2.11765-.31373 6.82353-1.4902 8.15686-2.66666 3.99999 2.35293 6.11764 2.35293 8.23529 2.66666 4.78432.70589 9.4902 0 14.11765 1.2549 3.05882.94118 5.49019 2.9804 8.39216 4.2353 1.2549 0 6.58823-4.2353 6.58823-6.90196 0-1.2549-2.50981-2.90196-3.76471-3.84314-3.05882-2.03921-6.90196-4-10.5098-4-3.92157 0-7.29412.2353-9.2549.2353-3.37255 0-6.35294-.70589-7.76471-1.7255 3.21569-.54902 11.29412-2.11765 11.29412-5.41176 0-.0784-.70589-3.37255-2.11765-9.4902.15686-.39215.31373-.39215.78432-.78431 3.60784-2.58824 6.03921-7.52942 6.03921-11.92157 0-10.74509-10.5098-16.39216-18.19608-21.88235 1.72549-1.2549 2.90197-3.21568 2.90197-5.72549 0-3.45097-3.21569-6.58823-6.7451-6.58823-3.45098 0-6.66667 3.13726-6.66667 6.58823 0 2.50981 1.17647 4.47059 2.90196 5.72549zm3.76471-2.90196c-.2353 0-.62746.23527-1.09804.23527-1.4902-.23527-2.19608-1.96079-2.19608-3.05882 0-1.80393 1.64706-3.13726 3.29412-3.13726 1.72549 0 3.21569 1.33333 3.21569 3.13726 0 1.09803-.70589 2.90196-1.96079 3.05882zm-1.64706 19.29412h-8.31373c-1.09803 0-2.19608.39218-2.19608 1.72549 0 1.2549 1.09805 1.72548 2.19608 1.72548h8.31373v9.49021c-2.35295.47058-6.82353.23528-11.13725 2.2745-.70589 0-1.17647-.62744-1.64706-1.0196-2.82353-2.27452-4.15687-5.80393-4.15687-9.41177 0-9.17647 10.7451-13.64706 16.94118-18.58824.39216-.31372 1.09804-1.17646 1.64706-1.17646.62744 0 1.33333.86274 1.72549 1.17646 6.19608 4.94118 16.94117 9.41177 16.94117 18.58824 0 3.60784-1.33333 7.13725-4.15686 9.41177-.47059.39216-1.09804 1.0196-1.80392 1.0196-4.23529-2.03922-8.78432-1.80392-11.05882-2.2745v-9.49021h8.39216c1.09803 0 2.19607-.47058 2.19607-1.72548 0-1.33334-1.09804-1.72549-2.19607-1.72549h-8.31373v-8.31373c0-1.09804-.39218-2.19608-1.72549-2.19608-1.2549 0-1.64706 1.09804-1.64706 2.19608zm14.82353 24.39215c-4.15687-1.80391-8.62745-2.7451-13.17647-2.7451-4.47059 0-9.09804.94119-13.09804 2.7451 1.2549-4.70588 1.2549-5.49019 1.72549-5.88235 2.19608-2.19608 8.62745-2.19608 11.37255-2.19608 2.5098 0 10.43137 1.17647 11.45098 2.19608zm-25.25491 3.29412v-.0784c3.92158-1.56862 7.84314-2.58823 12.07844-2.58823 4.15686 0 8.31373.86274 12.15686 2.58823-3.60784 1.80393-7.92157 2.74511-12.15686 2.74511-4.15687 0-8.15686-.86275-12.07844-2.66667zM16.7843 82.19607c4.70589-2.82353 5.80392-4.86275 14.90196-4.86275 2.03921 0 5.33333.47059 7.60784.47059 2.03921 0 5.01961-.70588 6.82353-2.27451 1.2549-1.2549 1.88235-2.11764 3.84314-2.11764 2.03922 0 2.66666.86274 3.92156 2.11764 1.80392 1.56863 4.78432 2.27451 6.82353 2.27451 2.27452 0 5.56864-.47059 7.60784-.47059 9.09805 0 10.19609 2.03922 14.90197 4.86275-2.19609 2.19608-2.5098 2.58823-2.90196 2.58823h-.0784c-3.84311-2.11764-7.92154-3.92156-12.3137-4.07843-5.33333-.31373-10.82353.31373-15.52941-2.5098-.78431-.47059-1.41177-1.17648-2.43137-1.17648-.94118 0-1.72549.70589-2.58824 1.17648-4.54902 2.90196-9.96078 2.19607-15.29411 2.5098-4.39216.15687-8.47059 1.96079-12.31373 4.07843z" style="fill:#000;stroke:none"/>
</svg>