<svg xmlns="http://www.w3.org/2000/svg" width="100" height="100">
	<path d="M49.09802 12.31372h-4.70588c-1.09803 0-1.41176.47058-1.41176 1.01961 0 .39218.31373.86275 1.41176.86275h4.70588v7.37254c-4.39215 1.01961-6.11764 6.03921-6.11764 10.35294 0 1.88235.70589 5.96079 1.33333 8-1.09804-1.01961-12.78431-10.7451-19.21568-10.7451-7.13725 0-12.47059 4.54902-12.47059 12.31372 0 7.68629 8.15686 13.01961 10.98039 20.2353.70589 6.9804.70589 7.68627.70589 8.39216l-.39216 11.92156c6.19607 3.29412 13.96078 6.35294 25.96078 6.35294s20-3.05882 26.19608-6.35294l-.47059-11.92156c0-.70589 0-1.41176.70588-8.39216 2.82353-7.21569 11.05883-12.54901 11.05883-20.2353 0-7.7647-6.19609-12.15685-12.4706-12.15685-6.90195 0-14.66666 6.19607-19.37254 10.58823.54902-2.03921 1.49019-6.03922 1.49019-7.92157 0-4.31372-1.72548-9.41176-6.11764-10.43137v-7.37254h4.70588c1.09804 0 1.41176-.47059 1.41176-.86275 0-.54903-.31372-1.01961-1.41176-1.01961h-4.70588v-2.27451c0-1.17647-.39218-1.41176-.94118-1.41176-.47059 0-.86275.23526-.86275 1.41176z" style="fill:#fff;stroke:none"/>
	<path d="M48.47058 11.68627h-5.33334c-1.2549 0-1.56862 1.0196-1.56862 1.49019 0 .54903.31372 1.4902 1.56862 1.4902h5.33334v5.56863c-4.54902.94117-6.90196 6.27451-6.90196 10.74509 0 2.03922.23529 4.31373.86275 6.43138-1.09805-1.09804-11.92158-9.17647-18.66668-9.17647-7.45097 0-13.17647 4.62745-13.17647 12.86274 0 8.2353 8.70589 13.72549 11.60785 21.33333.70588 7.37255.78431 8.07843.78431 8.86275l-.47059 11.92156c6.58824 3.45098 18.35295 6.82353 27.37255 6.82353 9.01961 0 21.01961-3.37255 27.60785-6.82353l-.4706-11.92156c0-.78432 0-1.4902.70589-8.86275 2.90196-7.60784 11.68627-13.09803 11.68627-21.33333 0-8.23529-6.58824-12.78431-13.17647-12.78431-7.21568 0-13.96078 4.39216-18.82353 9.09804.54902-2.11765 1.01961-4.31373 1.01961-6.27451 0-4.54902-2.35294-9.96079-6.90196-10.90196v-5.56863h5.33334c1.2549 0 1.56862-.94117 1.56862-1.4902 0-.47059-.31372-1.49019-1.56862-1.49019H51.5294V7.99999c0-1.17647-1.0196-1.4902-1.56863-1.4902-.47059 0-1.49019.31373-1.49019 1.4902zm1.49019 37.09804c-1.96078-5.80392-4.94117-11.68628-4.94117-17.64706 0-3.52942 1.41176-7.52941 4.86274-7.52941 3.45098 0 5.09804 3.99999 5.09804 7.52941 0 5.96078-3.05882 11.84314-5.01961 17.64706zm-1.49019 7.92156c-7.45099 0-15.68627 1.09804-23.05883 3.05883h-.23529c-3.60784-5.88235-9.96078-11.52942-11.05882-18.66667.39215-5.88236 4.86274-9.49019 9.64705-9.49019 8.2353 0 18.7451 8.47058 22.11765 16.39215 1.25491 2.82353 2.03922 5.4902 2.58824 8.70588zm3.05882 0c.54902-3.21568 1.33333-5.88235 2.58823-8.70588 3.37255-7.92157 13.88236-16.39215 22.11765-16.39215 4.78431 0 9.17647 4.39215 9.56862 9.49019-1.09803 8-7.29411 12.39216-10.98039 18.66667h-.23526c-7.37258-1.96079-15.60787-3.05883-23.05885-3.05883Zm22.19608 12.47059c-7.60784-2.19607-15.52941-3.7647-23.76471-3.7647-8.15686 0-16.07843 1.56863-23.68627 3.7647l-.39216-5.96078c7.60784-2.19608 16.70588-3.13726 24.07843-3.13726 7.45098 0 16.54903.94118 24.15687 3.13726zm-47.52941 3.68628c7.60784-2.19609 15.37255-4.00001 23.7647-4.00001 8.47059 0 16.47059 1.80392 24 4.00001l.23527 3.21568c-5.8039-1.96078-15.99997-3.84314-24.23527-3.84314-8.15686 0-17.96078 1.88236-23.99999 3.84314zm23.7647 13.72548c-5.72549 0-19.29411-1.72549-24.15686-5.01961l.0784-2.03921c.0784-.86275 15.92157-3.92157 24.07843-3.92157 8.2353 0 24.2353 2.98039 24.31373 3.76471l.15686 1.80392c-5.80392 3.68627-19.21568 5.41176-24.47059 5.41176z" style="fill:#000;stroke:none"/>
</svg>