<svg xmlns="http://www.w3.org/2000/svg" width="100" height="100">
	<path d="M21.96078 66.82352c.15686 2.03921 1.56862 2.2745 2.90196 2.2745 3.37255 0 4.54902-8 8.00001-11.05882 3.60783-3.21569 13.25489-7.45098 17.33333-10.43137 0 6.50981-1.01962 13.17647-2.90196 16.62745-1.80393 3.13725-4.00001 6.03922-6.11766 8.39216-2.19607 2.35294-5.49019 3.13725-5.49019 13.64706h50.03922c0-9.09805-3.21569-31.76471-7.92158-42.66667-3.37254-8-7.37254-12.39215-11.29411-15.13725-6.03922-4.07844-11.52941-5.33334-17.01961-6.19609-1.72549-3.05882-2.98039-7.7647-3.92156-8.94117-1.88236 1.33333-5.4902 6.43137-6.43138 6.43137-1.72549 0-7.21569-4.78431-10.27451-5.33333l.86274 9.56862c-.54901 3.76471-6.90195 5.33334-6.90195 10.82354 0 3.7647-.54902 5.2549-.94118 6.19608-2.58824 6.11764-8.78431 11.05882-8.78431 18.19607 0 1.88235.70587 4.39216 2.11765 5.80393 1.56863 1.88235 4.31372 1.64705 6.74509 1.80392z" style="fill:#fff;stroke:none;"/>
	<path d="M20.31372 69.33332c.39216 1.64706 2.11765 2.58824 3.60784 2.58824 6.19608 0 7.37255-7.84315 10.7451-11.29412 3.76471-4 9.56863-5.09804 13.80393-8.31373 0 5.56863-1.2549 10.19608-4.39216 14.11765-1.96079 2.66666-4.94118 4.70588-6.7451 7.60784-1.80392 2.82353-3.76471 3.76471-3.76471 14.7451h55.21569c0-9.4902-2.50981-33.96079-7.37255-45.41177-3.60785-8.39215-7.13725-13.09804-11.21569-15.84313C63.92156 23.21568 57.96078 20.47058 52 20.47058c-1.80392-3.13725-4.00001-9.33334-5.4902-9.33334-1.88236 0-6.11765 6.03922-7.13726 6.03922-.94117 0-9.17647-5.64706-10.74509-5.64706-.94118 0-1.33334 1.17647-1.33334 1.96079L28 22.82352c-.47059 4-6.98039 5.4902-6.98039 11.29411 0 4.00001-.2353 5.56864-.62746 6.50981-2.66666 6.5098-9.17647 11.68627-9.17647 19.13725 0 2.03922.70589 4.62745 2.19609 6.11765 1.72549 2.03921 4.31372 3.29411 6.90195 3.45098zm10.58824-53.01961 5.17647 3.21569-4.78432 1.96079zm-4.62745 23.37256c3.60784-1.17648 6.5098-3.45099 7.92157-7.05883-.39216-.2353-.78432-.39216-1.33333-.39216-3.37255 0-4.62746 4.86274-6.58824 7.45099zm19.60783-24c1.09805 2.43137 2.43138 5.64705 3.84315 7.92157 15.7647 1.72549 24.23529 9.09803 29.80391 25.09803 2.19608 6.43137 5.33334 31.68627 5.33334 36.70588H37.33333c0-8.31373 4-10.98039 8.54901-15.60784 4.07844-4.07844 6.03923-11.92157 6.03923-15.37255 0-2.90196-.23528-3.45098-.23528-3.84314 0-1.01961 1.17648-1.72549 1.80392-2.35294 1.64706-2.03921 2.58825-4.86275 2.58825-7.52941-.15687-1.88235-.4706-3.60785-1.96079-3.60785-1.01962 0-1.4902.78432-1.64706 1.56863 0 7.21569-1.56863 8.15686-6.35294 11.05882-4.31373 2.66668-9.33333 4.39217-13.2549 7.76472-1.2549 1.17647-2.27452 2.5098-3.05883 3.99999-1.49022 2.58823-3.21571 6.9804-5.88238 6.9804.31373-1.4902 1.80393-2.58824 2.27452-4.15687 0-1.17647-.78432-1.88236-1.72549-1.88236-1.88236 0-2.27452 3.45099-4.2353 3.45099-4.23529-1.4902-5.64706-3.7647-5.64706-6.27451.54903-6.03922 4.78432-9.80392 7.52941-14.7451 1.88236-3.37255 2.35295-4.78431 2.35295-10.2745 0-3.45099 2.43136-4.15687 4.54901-6.50981 1.4902-1.96079 1.80393-2.58824 2.35294-2.90196 0 0 7.92157-3.37255 9.33334-4.07843.70588-.31373 3.37255-3.60785 5.17646-5.41176zM15.7647 62.11764c1.72549-1.41177 4.62745-1.88236 4.62745-4.07844 0-1.0196-.78431-1.96079-1.96078-1.96079-2.66667.62746-2.66667 3.84315-2.66667 6.03923z" style="fill:#000;stroke:none;"/>
</svg>