<svg xmlns="http://www.w3.org/2000/svg" width="100" height="100">
	<path d="M44.47058 30.03921c-5.56862 1.56863-10.03921 7.13725-10.03921 12.62745 0 3.84313 2.7451 8.15686 6.03921 10.5098-9.64705 4.2353-17.64705 14.35294-17.64705 24.94118 0 1.4902.0784 2.90196.39216 4.31372.39214 1.33333.39214 2.58823 1.41176 2.58823h50.74509c.94117 0 1.0196-1.2549 1.41176-2.58823.39218-1.41176.39218-2.90196.39218-4.39215 0-10.50981-8.07843-20.70588-17.64706-24.86275 3.29412-2.35294 6.03923-6.66667 6.03923-10.5098 0-5.4902-4.4706-11.05882-10.03922-12.62745 1.4902-1.64706 3.37255-3.84314 3.37255-5.96079 0-5.49019-3.76471-8.94117-8.94118-8.94117-5.2549 0-8.86274 3.68628-8.86274 9.17647 0 2.11765 2.03922 4.07843 3.37255 5.72549z" style="fill:#fff;stroke:none;"/>
	<path d="M42.11764 29.17646c-5.72549 1.64706-9.41176 7.52941-9.41176 13.09804 0 4.15686 1.88234 8.54902 5.41176 11.05882C28 57.80391 21.56863 68.31372 21.56863 79.29411c0 1.49019.15685 2.90196.39215 4.39215.47059 1.41177.54902 2.82353 1.56862 2.82353h52.94118c1.01961 0 1.09804-1.41176 1.49019-2.82353.47059-1.49019.47059-2.98039.47059-4.47058 0-10.90196-6.5098-21.4902-16.54902-25.88236 3.52941-2.5098 5.41177-6.90196 5.41177-11.05882 0-5.56863-3.68628-11.45098-9.41176-13.09804 1.49019-1.64706 2.43136-3.84313 2.43136-6.19608 0-5.64705-4.94117-9.41176-10.35293-9.41176-5.56863 0-10.27451 3.92156-10.27451 9.64706 0 2.2745 1.01961 4.31372 2.43137 5.96078zm32.54901 54.03921H25.33333c-.2353-1.41176-.31373-2.90196-.31373-4.31372 0-9.88235 6.27451-19.21569 15.37255-22.90196 1.09804-.39215 2.82353-.70588 3.29412-1.80392.0784-.15686.0784-.39216.0784-.62745 0-1.17647-.94118-1.56863-1.96078-1.96079-3.52942-1.80392-5.80392-5.33332-5.80392-9.33333 0-5.56863 4.31372-9.96078 9.56862-10.5098 1.09804-.0785 2.66667-.39219 2.66667-1.64706 0-1.33334-1.33333-1.80392-2.35295-2.19608-1.64706-.70588-2.74509-3.13725-2.74509-5.2549 0-3.52942 3.76471-5.64706 6.82353-5.64706 3.52941 0 6.90196 2.27451 6.90196 5.96078 0 1.88236-1.09804 4.2353-2.7451 4.94118-1.01961.39218-2.35294 1.09804-2.35294 2.19608 0 1.2549 1.64706 1.56863 2.7451 1.64706 5.09804.94118 9.49019 4.94117 9.49019 10.5098 0 4.00001-2.19608 7.52941-5.33334 9.01961-.94117.47059-2.43136 1.01961-2.43136 2.19608 0 .23529 0 .39216.0784.62745.39219 1.17647 2.11765 1.41177 3.21568 1.88235 9.17648 3.37255 15.45099 13.17647 15.45099 22.90196 0 1.41176-.0784 2.90196-.31373 4.31372z" style="fill:#000;stroke:none;"/>
</svg>