<svg xmlns="http://www.w3.org/2000/svg" width="100" height="100">
	<path d="M24.47058 17.88234c0 3.45098 2.66667 4.70588 5.96078 4.94118l-1.33333 32.54902H27.5294L15.37254 29.09803c2.11765-1.09804 3.52941-1.80393 3.52941-4.31373 0-3.45098-2.43137-5.41177-5.88235-5.41177-3.52941 0-5.88235 1.96079-5.88235 5.41177 0 2.7451 3.13726 4.94118 5.88235 4.94118h1.2549l3.92157 30.03921c.78431 3.13726 2.19608 5.64707 5.01961 7.05883 1.01961.47058 2.5098 4.54902 2.5098 7.21568 0 2.58824-.94117 5.33334-2.58823 7.37255-.31373.47059-.86275.86274-.86275 1.41177 0 .15686.15686.47058.31373.70587 3.84314 3.45099 21.01961 3.84315 27.29411 3.84315 5.64706 0 24-.15687 27.52942-4.00001.15686-.15686.31372-.39215.31372-.54901 0-.54903-.39219-.94118-.70588-1.33333-1.80393-2.11765-2.7451-4.7059-2.7451-7.45099 0-2.5098 1.4902-6.7451 2.5098-7.21568 2.82353-1.41176 4.70588-3.92157 5.09804-7.05883l3.68628-30.03921h1.33333c2.66666 0 5.88235-2.19608 5.88235-4.94118 0-3.45098-2.35294-5.41177-5.88235-5.41177s-5.88236 1.96079-5.88236 5.41177c0 2.58823 1.49021 3.29412 3.60785 4.31373L72.70587 55.37254h-1.72549l-1.2549-32.54902c3.29411-.23527 5.80392-1.4902 5.80392-4.94118 0-3.45098-2.43138-5.41176-5.96078-5.41176-3.45098 0-5.88236 1.96078-5.88236 5.41176 0 2.74509 1.72549 3.60785 4.07844 4.54902L57.33332 53.88234h-.94117l-5.01961-34.7451c2.82353-.62745 4.54902-1.72549 4.54902-4.70588 0-3.52941-2.43137-5.41176-5.96078-5.41176-3.45099 0-5.88235 1.88235-5.88235 5.41176 0 3.05882 1.80391 4.2353 4.70588 4.78431l-5.41177 34.66667h-.78432L31.99999 22.43136c2.43138-.94117 4.31372-1.80393 4.31372-4.54902 0-3.45098-2.43136-5.41176-5.88235-5.41176-3.52941 0-5.96078 1.96078-5.96078 5.41176z" style="fill:#fff;stroke:none;"/>
	<path d="M42.50979 47.92155c-.39215-1.0196-8.39215-24.23528-8.39215-24.23528 1.96079-1.01962 2.98039-3.21569 2.98039-5.41177 0-3.45098-2.82353-6.7451-6.43137-6.7451-3.84314 0-6.9804 2.74509-6.9804 6.66667 0 2.82352 2.03922 5.56863 4.70589 6.43137l-1.4902 25.17647h-.0784l-9.2549-19.29412c1.0196-1.64706 2.11765-3.29412 2.11765-5.33333 0-3.68627-3.21569-6.66667-6.82353-6.66667-3.68628 0-6.43137 3.29412-6.43137 6.66667 0 3.21569 2.35294 6.35294 5.80391 6.58824 3.45098 28.15686 3.52942 29.96078 4.2353 31.60784.70588 1.80392 1.96079 3.29411 3.29412 4.54901.70588.54903 1.72549.94118 2.35294 1.64706 1.17646 1.41177 1.88235 3.92158 1.88235 5.72549 0 2.19608-.39216 3.60784-1.09803 4.78431-.78432 1.41178-2.27452 2.74511-2.27452 3.92158 0 6.2745 22.58824 6.5098 29.33334 6.5098 6.82353 0 29.56862-.2353 29.56862-6.5098 0-1.17647-1.64706-2.5098-2.43137-3.92158-.70589-1.17647-1.09804-3.05882-1.09804-4.78431 0-1.88235.70588-4.31372 1.88235-5.72549.62745-.70588 1.64706-1.09803 2.35294-1.64706 2.7451-2.43136 4.23529-6.11764 4.23529-10.03921l3.29412-26.11764c3.45098-.23528 5.80393-3.37255 5.80393-6.58824 0-3.45098-2.74511-6.66667-6.43137-6.66667-3.60785 0-6.82354 2.9804-6.82354 6.66667 0 2.43137 1.09804 3.60784 2.19609 5.33333-3.92158 8-7.29413 14.66667-9.33334 19.29412h-.0784L71.6079 24.62744c2.66667-.86274 4.70588-3.60785 4.70588-6.43137 0-3.92158-2.98039-6.66667-6.90195-6.66667-3.60785 0-6.50981 3.13725-6.50981 6.66667 0 2.19608 1.01961 4.47058 2.98039 5.4902l-8.39216 24.23528c-4.15685-24.31371-4.15685-24.23528-4.70588-27.05882 1.80393-.78431 3.92158-3.13725 3.92158-6.03921 0-1.64706-.62746-3.21569-1.56863-4.39216-1.33334-1.56862-3.21569-2.35294-5.17647-2.35294-3.52942 0-6.66667 3.05882-6.66667 6.7451 0 2.66666 1.80392 5.09804 3.84314 6.35294-.31373 2.03922-4.62746 26.74509-4.62746 26.74509zm7.45099-29.80391c-1.64706 0-3.29412-1.64706-3.29412-3.29412 0-1.72549 1.64706-3.29412 3.29412-3.29412 1.72549 0 3.37255 1.56863 3.37255 3.29412 0 1.64706-1.64706 3.29412-3.37255 3.29412zm-22.82353 0c0-1.7255 1.56862-3.21569 3.29411-3.21569 1.64706 0 3.29412 1.72549 3.29412 3.37255 0 1.72549-1.64706 3.21569-3.29412 3.21569-1.72549 0-3.29411-1.7255-3.29411-3.37255zm39.13725.0784c0-1.80393 1.64706-3.29412 3.29412-3.29412 1.41176 0 3.29412 1.17647 3.29412 3.29412 0 2.11764-1.49021 3.29411-3.29412 3.29411-1.80392 0-3.29412-1.72549-3.29412-3.29411zm-53.2549 3.68624c1.64706 0 3.29412 1.64706 3.29412 3.29412 0 1.72549-1.64706 3.29412-3.29412 3.29412-1.72549 0-3.29412-1.56863-3.29412-3.29412 0-1.64706 1.56863-3.29412 3.29412-3.29412zm70.66666 3.29412c0-1.80392 1.64706-3.29412 3.29412-3.29412 1.41177 0 3.29412 1.41177 3.29412 3.29412 0 2.19607-1.64706 3.29412-3.29412 3.29412-1.96078-.0785-3.29412-1.56863-3.29412-3.29412zM15.99999 35.29404l9.72549 20.00001-4.15686-.39216c-1.25491 0-2.19608 1.17646-2.90196 1.88235zm62.66667 19.60785c-1.64706.0784-2.66667.31372-4.39216.31372l9.64706-19.92157-1.96079 21.56863c-1.72549-.0784-2.27451-1.88235-3.29411-1.96078zm-33.4902-2.5098 4.78432-27.60785h.15686l4.70588 27.60785c-1.01961-.39216-2.03922-1.01962-2.82353-1.56863-.62745-.54902-1.17647-1.25491-2.03921-1.25491-.78432 0-1.33334.70589-1.96079 1.25491-.78431.54901-1.80392 1.17647-2.82353 1.56863zm-15.05882 1.80392 1.49019-27.29412 9.09805 26.43137c-1.17648 0-2.50981-.2353-3.60785-.62746-.70589-.31371-1.49019-.94117-2.27451-.94117-.94117.15687-1.4902.70589-2.11764 1.09804-.78432.54902-1.72549 1.01961-2.58824 1.33334zm29.17647-.86275 9.09803-26.5098 1.4902 27.37255c-.86274-.31373-1.80391-.78432-2.58823-1.33334-.62746-.39215-1.17647-.94117-1.88236-1.09804-1.0196 0-1.80392.62746-2.5098.94117-1.09804.39216-2.43138.62746-3.60784.62746zm-39.92157 7.52941c.62746-.94117 1.64706-1.72549 2.7451-2.35294h3.37255c6.58823-.0784 8.07843-2.90196 9.49019-2.90196.62746 0 3.60785 1.09804 5.80393 1.09804 3.92156 0 6.98038-1.72549 7.92157-2.43137.7843-.47059 1.0196-.47059 1.2549-.47059.47059 0 .70587.31373 1.0196.47059 2.50981 1.4902 5.2549 2.43137 8.15686 2.43137 1.33333 0 5.88235-1.01961 5.64707-1.17647 3.29412 1.56863 5.80391 2.7451 9.33333 3.05882.47058 0 2.19607-.15686 3.05882-.15686 1.41176 0 3.13725 1.64706 3.45098 2.74509-.54902 2.35295-2.03922 4.00001-3.92157 4.86275-8.94117-2.35294-17.72549-3.60785-26.74509-3.60785-8.86275 0-21.7255 1.96079-26.58824 3.60785-2.19608-1.0196-4-2.90196-4-5.17647zm6.43137 8c9.17647-2.03921 15.37255-2.98039 24.15687-2.98039 8.86274 0 12.31372.39216 24.23529 2.98039l-1.4902 4.86274c-7.29412-2.35293-14.90196-3.45097-22.74509-3.45097-7.68628 0-15.37256 1.09804-22.66667 3.45097zm1.72549 8.47059c7.05882-2.5098 14.90197-3.60785 22.43138-3.60785 7.60784 0 17.17646 1.56863 22.5098 3.60785l1.0196 2.98039c-7.68627-1.17647-15.68627-1.4902-23.5294-1.4902-7.76471 0-15.76471.31373-23.45099 1.4902zm-2.82352 6.90196c8-1.80392 16.47058-2.03922 25.2549-2.03922 8.86274 0 16.86274.0784 25.33333 2.03922-8.07844 2.66666-16.86274 2.90196-25.33333 2.90196-8.47059 0-17.17647-.31373-25.2549-2.90196z" style="fill:#000;stroke:none;"/>
</svg>