<svg xmlns="http://www.w3.org/2000/svg" width="100" height="100">
	<path d="M67.76469 63.13724V35.99999l9.41176-8.39216V14.66665h-9.41176v5.09804h-12v-5.09804H44.23527v5.09804H32.23528v-5.09804h-9.41176v12.94118l9.17646 8.47059v27.05882l-8 8.39216v8.70588h-5.0196v7.29412h61.88235v-7.29412h-4.94118V71.2941Z" style="fill:#fff;stroke:none;"/>
	<path d="M22.11763 78.2745h-4.70588v10.19607h65.17647V78.2745H77.8039v-7.13726l-8.07842-8.62745V36.62744l9.49019-7.84314V13.17646H64.86273v5.72549h-6.43137v-5.72549H41.72547v5.72549h-6.5098v-5.72549h-14.5098v15.68627l9.49019 7.45099v26.19607l-8.07843 8.47059zm1.96079-52.2353v-9.41176h7.68627v5.64705h13.33333v-5.64705h9.72549v5.64705H68.3137v-5.64705h7.45099v9.41176zm3.45098 3.45098v-.0784h44.86274l-5.09804 3.68627H32.70587Zm6.03921 32.07843V36.62744H66.2745v24.94117zm-5.80392 8.62746 5.01961-5.09804h34.35294l4.94117 5.09804zm-2.27451 8.07843v-4.70589h48.94118v4.70589zm-4.70588 7.13725v-3.68628h58.43137v3.68628z" style="fill:#000;stroke:none;"/>
</svg>